<?xml version="1.0" encoding="UTF-8" standalone="no"?><!DOCTYPE svg PUBLIC "-//W3C//DTD SVG 1.1//EN" "http://www.w3.org/Graphics/SVG/1.1/DTD/svg11.dtd"><svg  viewBox="0 20 692 476" version="1.1" xmlns="http://www.w3.org/2000/svg" xmlns:xlink="http://www.w3.org/1999/xlink" xml:space="preserve"  style="fill-rule:evenodd;clip-rule:evenodd;stroke-linecap:round;stroke-linejoin:round;stroke-miterlimit:1.5;"><g><rect x="104.13" y="87.164" width="508.361" height="361.241" style="fill:none;"/><clipPath id="_clip1"><rect x="104.13" y="87.164" width="508.361" height="361.241"/></clipPath><g clip-path="url(#_clip1)"><path d="M104.13,179.295l508.361,0" style="fill:none;stroke:#000;stroke-width:18.29px;"/></g><rect x="104.13" y="87.164" width="508.361" height="361.241" style="fill:none;stroke:#000;"/><path d="M500.875,43.838l0,86.651" style="fill:none;stroke:#000;stroke-width:32.62px;"/><path d="M215.746,43.838l0,86.651" style="fill:none;stroke:#000;stroke-width:32.62px;"/></g><g id="slug"><path d="M211.13,388.674c0,0 119.797,-2.539 141.948,-99.41c10.502,-45.928 42.504,-52.272 56.515,-42.713c20.37,13.896 21.475,45.379 -16.923,52.208" style="fill:none;stroke:#000;"/><path d="M211.13,388.674c-2.325,4.06 150.653,44.047 181.695,-5.329c31.043,-49.375 9.475,-84.586 9.475,-84.586" style="fill:none;stroke:#000;"/><path d="M376.895,245.434c0,0 -1.325,-53.493 12.865,-35.024" style="fill:none;stroke:#000;"/><path d="M409.626,245.434c0,0 -1.325,-53.493 12.865,-35.024" style="fill:none;stroke:#000;"/></g></svg>